HIERARCHY
ROOT root
{
	OFFSET	0	13.1	24.9
	CHANNELS 6  Xposition Yposition Zposition Xrotation Yrotation Zrotation
	JOINT spine_1
	{
		OFFSET	0	9.99999	0
		CHANNELS 3  Xrotation Yrotation Zrotation
		JOINT spine_2
		{
			OFFSET	0	112	-10
			CHANNELS 3  Xrotation Yrotation Zrotation
			JOINT spine_3
			{
				OFFSET	0	206.5	19.3
				CHANNELS 3  Xrotation Yrotation Zrotation
				JOINT spine_4
				{
					OFFSET	0	110.4	14.6
					CHANNELS 3  Xrotation Yrotation Zrotation
					JOINT neck_1
					{
						OFFSET	0	71.8	-50.3
						CHANNELS 3  Xrotation Yrotation Zrotation
						JOINT neck_2
						{
							OFFSET	0	86.2	-25.8
							CHANNELS 3  Xrotation Yrotation Zrotation
							JOINT head_ee
							{
								OFFSET	0	179.8	-8.7
								CHANNELS 3  Xrotation Yrotation Zrotation
								End Site
								{
									OFFSET	1	0	0
								}
							}
						}
					}
					JOINT left_clavicle
					{
						OFFSET	-43.2	22.4	-70.8
						CHANNELS 3  Xrotation Yrotation Zrotation
						JOINT left_shoulder
						{
							OFFSET	-93.9	-5.79999	48.7
							CHANNELS 3  Xrotation Yrotation Zrotation
							JOINT left_elbow
							{
								OFFSET	-291.4	-30.8	15.2
								CHANNELS 3  Xrotation Yrotation Zrotation
								JOINT left_lowarm_twist
								{
									OFFSET	-110.7	-3.89999	13.6
									CHANNELS 3  Xrotation Yrotation Zrotation
									JOINT left_hand
									{
										OFFSET	-110.7	-3.89999	13.6
										CHANNELS 3  Xrotation Yrotation Zrotation
										JOINT left_ee
										{
											OFFSET	-80.8	-5.10001	12.1
											CHANNELS 3  Xrotation Yrotation Zrotation
											End Site
											{
												OFFSET	1	0	0
											}
										}
									}
								}
							}
						}
					}
					JOINT right_clavicle
					{
						OFFSET	43.2	22.4	-70.8
						CHANNELS 3  Xrotation Yrotation Zrotation
						JOINT right_shoulder
						{
							OFFSET	93.9	-5.79999	48.7
							CHANNELS 3  Xrotation Yrotation Zrotation
							JOINT right_elbow
							{
								OFFSET	291.4	-30.8	15.2
								CHANNELS 3  Xrotation Yrotation Zrotation
								JOINT right_lowarm_twist
								{
									OFFSET	110.7	-3.89999	13.6
									CHANNELS 3  Xrotation Yrotation Zrotation
									JOINT right_hand
									{
										OFFSET	110.7	-3.89999	13.6
										CHANNELS 3  Xrotation Yrotation Zrotation
										JOINT right_ee
										{
											OFFSET	80.8	-5.10001	12.1
											CHANNELS 3  Xrotation Yrotation Zrotation
											End Site
											{
												OFFSET	1	0	0
											}
										}
									}
								}
							}
						}
					}
				}
			}
		}
	}
	JOINT left_hip
	{
		OFFSET	-82.8	-127.5	0.300001
		CHANNELS 3  Xrotation Yrotation Zrotation
		JOINT left_knee
		{
			OFFSET	-28.2	-396.7	2.2
			CHANNELS 3  Xrotation Yrotation Zrotation
			JOINT left_ankle
			{
				OFFSET	-11.7	-411.3	35.4
				CHANNELS 3  Xrotation Yrotation Zrotation
				JOINT left_toes
				{
					OFFSET	0	-60	-88.6
					CHANNELS 3  Xrotation Yrotation Zrotation
					JOINT left_foot_ee
					{
						OFFSET	-22.5	-16.5	-42.2
						CHANNELS 3  Xrotation Yrotation Zrotation
						End Site
						{
							OFFSET	1	0	0
						}
					}
				}
			}
		}
	}
	JOINT right_hip
	{
		OFFSET	82.8	-127.5	0.300001
		CHANNELS 3  Xrotation Yrotation Zrotation
		JOINT right_knee
		{
			OFFSET	28.2	-396.7	2.2
			CHANNELS 3  Xrotation Yrotation Zrotation
			JOINT right_ankle
			{
				OFFSET	11.7	-411.3	35.4
				CHANNELS 3  Xrotation Yrotation Zrotation
				JOINT right_toes
				{
					OFFSET	0	-60	-88.6
					CHANNELS 3  Xrotation Yrotation Zrotation
					JOINT right_foot_ee
					{
						OFFSET	22.5	-16.5	-42.2
						CHANNELS 3  Xrotation Yrotation Zrotation
						End Site
						{
							OFFSET	1	0	0
						}
					}
				}
			}
		}
	}
}
MOTION
Frames: 5
Frame Time: 0.02
798.26702127 607.019 -1771.42619447 -11.4289170879 52.1010182967 22.7098672327 4.27056 -0.863298 -3.20022 4.27601 -0.658021 -3.24859 4.30972 -0.210325 -3.30782 4.2952 -0.72982 -3.23324 0.357133 -7.35858 8.87431 1.04204 -20.3392 8.98389 -0.0 0.0 -0.0 8.89531 18.7366 15.8691 -5.6777 -40.0249 59.8953 1.74604 -40.8541 0.65033 -20.1108 -1.12451 2.29938 0.548982 16.3294 10.0687 -0.0 0.0 -0.0 -0.655472 -23.9597 -1.88166 -29.695 50.3946 -56.1228 0.852823 22.9021 -0.172753 -15.6303 0.804857 -1.82315 -0.235254 4.56351 3.51961 0.0 0.0 0.0 12.1436 -7.13969 -9.66653 6.1612 -0.302287 -0.896397 20.0316 20.2841 -2.80817 -1.55249 0.0 0.0 -0.0 0.0 -0.0 24.8318 7.53887 -13.6583 -49.5529 1.18346 -7.27956 40.0793 -1.46217 4.87363 40.1728 -0.0 -0.0 0.0 0.0 0.0 
787.350505618 607.904 -1775.94185629 -11.5188143029 52.1415975289 22.5375567397 4.45874 -0.853666 -3.3203 4.46465 -0.64078 -3.36782 4.49808 -0.188277 -3.423 4.48246 -0.726208 -3.35046 0.351327 -7.54169 10.1897 1.19149 -21.735 10.4367 -0.0 0.0 -0.0 9.12793 18.8732 16.2261 -4.15674 -38.8839 61.5299 1.6714 -39.6203 0.602115 -18.9669 -1.03936 2.18017 0.550557 15.5214 9.78125 -0.0 0.0 -0.0 -0.648523 -24.0143 -1.89805 -30.4732 50.3587 -56.1766 0.71724 19.5601 -0.123633 -16.0136 0.830726 -1.86484 -0.257778 3.82938 3.3574 0.0 0.0 0.0 10.255 -6.67315 -9.25696 8.90413 -0.467592 -1.2842 22.1549 18.4028 -3.05507 -2.19226 0.0 0.0 -0.0 0.0 -0.0 26.5124 7.69662 -12.727 -48.421 1.08745 -7.13411 40.3107 -0.0846636 4.90192 40.1725 -0.0 -0.0 0.0 0.0 0.0 
774.962178267 610.294 -1777.15292221 -12.1225235833 49.0734702088 22.2057613195 4.55414 -0.569544 -3.53926 4.56105 -0.343324 -3.56828 4.57733 0.128771 -3.58243 4.55969 -0.438258 -3.55788 -0.59721 -6.88888 11.8225 0.317886 -21.8605 12.0809 -0.0 0.0 -0.0 10.2501 18.9089 18.0501 5.79667 -40.155 63.8959 1.23419 -31.4395 0.347386 -18.3689 -0.995798 2.11718 -0.45653 13.3032 2.59891 -0.0 0.0 -0.0 -1.09239 -23.0493 -1.16181 -31.3807 50.1816 -55.7047 0.801121 21.6456 -0.153155 -15.9986 0.82971 -1.86321 -1.41884 -0.195921 9.43042 0.0 0.0 0.0 9.77319 -5.79594 -9.03134 10.6358 -0.581477 -1.52487 21.2011 20.0581 -2.95443 -6.3415 0.0 0.0 -0.0 0.0 -0.0 33.8969 9.06504 -13.7656 -46.0802 0.898175 -6.82756 39.6326 -0.0373167 4.84395 40.1092 -0.0 -0.0 0.0 0.0 0.0 
775.82602599 610.294 -1779.5482849 -11.9992844345 48.5689180079 22.0420244907 4.55414 -0.569544 -3.53926 4.56105 -0.343324 -3.56828 4.57733 0.128771 -3.58243 4.55969 -0.438258 -3.55788 -0.59721 -6.88888 11.8225 0.317886 -21.8605 12.0809 -0.0 0.0 -0.0 10.2501 18.9089 18.0501 5.79667 -40.155 63.8959 1.23419 -31.4395 0.347386 -18.3689 -0.995798 2.11718 -0.45653 13.3032 2.59891 -0.0 0.0 -0.0 -1.09239 -23.0493 -1.16181 -31.3807 50.1816 -55.7047 0.801121 21.6456 -0.153155 -15.9986 0.82971 -1.86321 -1.41884 -0.195921 9.43042 0.0 0.0 0.0 9.77319 -5.79594 -9.03134 10.6358 -0.581477 -1.52487 21.2011 20.0581 -2.95443 -6.3415 0.0 0.0 -0.0 0.0 -0.0 33.8969 9.06504 -13.7656 -46.0802 0.898175 -6.82756 39.6326 -0.0373167 4.84395 40.1092 -0.0 -0.0 0.0 0.0 0.0 
773.519049884 611.16 -1780.89354449 -12.531455967 47.8332069036 22.4075964192 4.6649 -0.485401 -3.60518 4.67209 -0.255165 -3.62872 4.68272 0.217608 -3.63116 4.66451 -0.358212 -3.62001 0.674053 -6.04023 12.1788 1.65083 -20.7298 12.8542 -0.0 0.0 -0.0 10.4961 18.3226 18.559 9.40271 -40.7443 64.5666 1.09224 -28.4154 0.276543 -18.4768 -1.00361 2.12858 -0.922315 12.0192 -0.882289 -0.0 0.0 -0.0 -1.56854 -22.801 -0.465681 -31.4377 50.2436 -55.7727 0.873378 23.3953 -0.180834 -15.5748 0.80113 -1.8171 -2.06153 -2.03222 12.9443 0.0 0.0 0.0 10.5478 -6.57917 -9.45629 8.70755 -0.455128 -1.25667 21.452 19.1047 -2.97506 -8.22246 0.0 0.0 -0.0 0.0 -0.0 35.8612 10.0841 -14.5978 -45.3079 0.838507 -6.72478 39.2667 -0.0823316 4.81173 40.1901 -0.0 -0.0 0.0 0.0 0.0 
